<?xml version="1.0" encoding="utf-8"?>
<!-- Generator: Adobe Illustrator 23.0.0, SVG Export Plug-In . SVG Version: 6.00 Build 0)  -->
<svg version="1.1" id="Layer_1" xmlns="http://www.w3.org/2000/svg" xmlns:xlink="http://www.w3.org/1999/xlink" x="0px" y="0px"
	 viewBox="0 0 150 40" style="enable-background:new 0 0 150 40;" xml:space="preserve">
<style type="text/css">
	.st0{fill:#FFFFFF;}
</style>
<title>8CD1E334-18C4-4430-B600-85803D1DEB91</title>
<desc>Created with sketchtool.</desc>
<g>
	<g transform="translate(-118.000000, -87.000000)">
		<g id="board_logotype_lockup" transform="translate(118.000000, 87.000000)">
			<path id="Shape" class="st0" d="M23.5,18.7v-0.1c2.9-1.6,4.7-4.7,4.6-8.1c0-6.2-4.9-9.7-11.6-9.7l-13.6,0l0,37.7h13.7
				c7,0,13.1-3.4,13.1-11C29.8,23.5,27.3,19.9,23.5,18.7z M9.7,6.7h6.6c1.3-0.1,2.6,0.3,3.5,1.2c0.9,0.9,1.4,2.2,1.3,3.5
				c0.1,1.3-0.4,2.5-1.3,3.5s-2.1,1.4-3.4,1.4H9.7L9.7,6.7z M17.1,32.6H9.7V21.7h7.4c3,0,5.5,2.4,5.5,5.4S20.1,32.6,17.1,32.6
				L17.1,32.6z"/>
			<path class="st0" d="M48.1,10.4c-5.3-0.2-10.3,2.6-13,7.1c-2.7,4.6-2.7,10.2,0,14.8c2.7,4.5,7.7,7.2,13,7.1
				c5.3,0.2,10.3-2.6,13-7.1c2.7-4.6,2.7-10.2,0-14.8S53.4,10.2,48.1,10.4z M48.1,33.5c-2.2,0-4.4-0.9-5.9-2.6
				c-1.5-1.6-2.3-3.8-2.2-6c-0.2-3,1.2-5.9,3.8-7.5s5.9-1.6,8.5,0c2.6,1.6,4.1,4.5,3.8,7.5c0.1,2.2-0.7,4.3-2.2,5.9
				C52.5,32.5,50.4,33.4,48.1,33.5L48.1,33.5z"/>
			<path class="st0" d="M87.9,14.9c-0.9-1.4-2.1-2.5-3.6-3.2c-1.6-0.8-3.3-1.2-5-1.1c-2.4,0-4.7,0.7-6.7,2c-2,1.3-3.6,3.1-4.6,5.3
				C67,20,66.4,22.5,66.4,25c0,2.6,0.5,5.2,1.7,7.5c1,2,2.6,3.8,4.5,5c1.9,1.2,4.2,1.8,6.4,1.7c1.8,0,3.7-0.3,5.3-1.1
				c1.5-0.7,2.8-1.8,3.7-3.2l0,3.5h6.7V11.4h-6.7L87.9,14.9z M86.2,30.8c-1.4,1.5-3.4,2.3-5.5,2.3s-4-0.8-5.5-2.3
				c-2.8-3.4-2.8-8.4,0-11.8c1.4-1.5,3.4-2.3,5.5-2.3c2.1,0,4,0.8,5.5,2.3C89.1,22.4,89.1,27.3,86.2,30.8L86.2,30.8z"/>
			<path class="st0" d="M140.5,0.6l-0.1,14.2c-0.9-1.4-2.1-2.5-3.6-3.2c-1.6-0.8-3.3-1.2-5-1.1c-2.4,0-4.7,0.7-6.7,2
				c-2,1.3-3.6,3.1-4.6,5.3c-1.1,2.2-1.7,4.7-1.7,7.2c0,2.6,0.5,5.2,1.7,7.5c1,2,2.6,3.8,4.5,5c1.9,1.2,4.2,1.8,6.4,1.7
				c1.8,0,3.7-0.3,5.3-1.1c1.5-0.7,2.8-1.8,3.7-3.2l0,3.6h6.7V0.7L140.5,0.6z M138.6,30.7c-1.4,1.5-3.4,2.3-5.5,2.3
				c-2.1,0-4-0.8-5.5-2.3c-2.8-3.4-2.8-8.4,0-11.8c1.4-1.5,3.4-2.3,5.5-2.3c2.1,0,4,0.8,5.5,2.3C141.5,22.3,141.5,27.3,138.6,30.7
				L138.6,30.7z"/>
			<path class="st0" d="M106.8,16.6v-5.3h-6.5v27.1h6.8V27.6c0-1.5,0.2-3,0.6-4.4c0.9-3.3,3.9-5.7,7.4-5.7c0.6,0,1.1,0,1.7,0.1V11
				c-0.4-0.1-0.8-0.1-1.2-0.1C111.7,10.9,108.3,13.1,106.8,16.6z"/>
		</g>
	</g>
</g>
</svg>
