<?xml version="1.0" encoding="UTF-8"?>
<svg width="47px" height="48px" viewBox="0 0 47 48" version="1.1" xmlns="http://www.w3.org/2000/svg" xmlns:xlink="http://www.w3.org/1999/xlink">
    <!-- Generator: sketchtool 49.3 (51167) - http://www.bohemiancoding.com/sketch -->
    <title>35C909EA-4FBD-43A4-8928-802059C6A21D</title>
    <desc>Created with sketchtool.</desc>
    <defs>
        <polygon id="path-1" points="0 47.6619718 46.6736111 47.6619718 46.6736111 0.229859155 0 0.229859155"></polygon>
    </defs>
    <g id="Symbols" stroke="none" stroke-width="1" fill="none" fill-rule="evenodd">
        <g id="Footer/Lg" transform="translate(-90.000000, -276.000000)">
            <g id="Equal-Housing-Copy-2" transform="translate(90.000000, 276.000000)">
                <path d="M23.4152649,0.338061972 L0.000102204988,12.0078085 L0.000102204988,17.3033577 L2.72556855,15.9451606 L2.72556855,34.682062 L44.2885896,34.682062 L44.2885896,16.106738 L46.6737133,17.3023437 L46.6737133,12.0003718 L23.4152649,0.338061972 Z M7.49479396,13.5678085 L23.4084513,5.63699155 L39.5193642,13.7151887 L39.5193642,29.9500056 L7.49479396,29.9500056 L7.49479396,13.5678085 Z M14.9901671,18.794738 L31.6836484,18.794738 L31.6836484,14.0623437 L14.9901671,14.0623437 L14.9901671,18.794738 Z M14.9901671,26.5697239 L31.6836484,26.5697239 L31.6836484,21.8373296 L14.9901671,21.8373296 L14.9901671,26.5697239 Z" id="Fill-1" fill="#8F8F8F"></path>
                <polygon id="Fill-2" fill="#8F8F8F" points="3.33862813 38.6271887 5.66106614 38.6271887 5.66106614 39.2282028 4.04929348 39.2282028 4.04929348 39.9664563 5.56567482 39.9664563 5.56567482 40.5722028 4.04929348 40.5722028 4.04929348 41.4051042 5.76122703 41.4051042 5.68968354 42.0061183 3.33862813 42.0061183"></polygon>
                <g id="Group-34" transform="translate(0.000000, 0.108169)">
                    <path d="M7.80277166,40.833093 L8.23203261,40.473769 L8.61836746,40.9561352 C8.71375878,40.7763042 8.76145445,40.5271775 8.76145445,40.2084169 C8.76145445,39.8362479 8.68922959,39.5482479 8.54443919,39.345093 C8.39964879,39.141262 8.17820465,39.0395155 7.87908472,39.0395155 C7.58030547,39.0395155 7.35681723,39.141262 7.20896068,39.345093 C7.06110413,39.5482479 6.98717586,39.8362479 6.98717586,40.2084169 C6.98717586,40.5843042 7.06110413,40.8750085 7.20896068,41.0815437 C7.35681723,41.2884169 7.58030547,41.3915155 7.87908472,41.3915155 C7.93938566,41.3915155 7.99832387,41.3877972 8.05555866,41.3796845 C8.11279346,41.3719099 8.16662142,41.3587268 8.21772391,41.3394592 L7.80277166,40.833093 Z M8.6135979,41.8366986 C8.39726401,41.9343887 8.15231272,41.9830648 7.87908472,41.9830648 C7.62493498,41.9830648 7.39735854,41.9421634 7.19703677,41.8600225 C6.99671499,41.7782197 6.82671403,41.6595718 6.68669319,41.505093 C6.54667236,41.3506141 6.43935712,41.1643606 6.36474748,40.9466704 C6.29013784,40.7289803 6.25266268,40.4832338 6.25266268,40.2084169 C6.25266268,39.9342761 6.29013784,39.6878535 6.36474748,39.4705014 C6.43935712,39.2524732 6.54735373,39.0662197 6.68907798,38.9117408 C6.83046154,38.757262 7.00148455,38.6389521 7.20180633,38.5571493 C7.40212811,38.4746704 7.62766045,38.433769 7.87908472,38.433769 C8.13357514,38.433769 8.36081089,38.4746704 8.56113267,38.5571493 C8.76145445,38.6389521 8.93077404,38.757262 9.06909146,38.9117408 C9.20740888,39.0662197 9.31336138,39.2524732 9.3862676,39.4705014 C9.45917383,39.6878535 9.49596762,39.9342761 9.49596762,40.2084169 C9.49596762,40.4862761 9.45917383,40.7330366 9.3862676,40.9493746 C9.31336138,41.1650366 9.20502409,41.3489239 9.06193711,41.5006986 L9.47688936,42.0070648 L9.04762841,42.3663887 L8.6135979,41.8366986 Z" id="Fill-3" fill="#8F8F8F"></path>
                    <path d="M10.1636047,38.5190197 L10.87427,38.5190197 L10.87427,40.5302873 C10.87427,40.8176113 10.9250318,41.030569 11.0268961,41.1691606 C11.1284198,41.3080901 11.2987614,41.3773859 11.5372397,41.3773859 C11.7753773,41.3773859 11.9450376,41.3080901 12.0448578,41.1691606 C12.1450187,41.030569 12.1954398,40.8176113 12.1954398,40.5302873 L12.1954398,38.5190197 L12.9061052,38.5190197 L12.9061052,40.5302873 C12.9061052,40.7858366 12.874081,41.0048789 12.8107139,41.1880901 C12.7470061,41.3713014 12.6563843,41.5217239 12.5388486,41.6400338 C12.4209722,41.7583437 12.2772038,41.8452169 12.1072029,41.9003155 C11.9368612,41.9554141 11.7453972,41.9831324 11.5324701,41.9831324 C11.3161363,41.9831324 11.1229688,41.954738 10.9526272,41.8979493 C10.7826262,41.8411606 10.6388579,41.7536113 10.5213221,41.6353014 C10.4034457,41.5169915 10.3145274,41.3648789 10.2542264,41.1786254 C10.1939255,40.9923718 10.1636047,40.7716394 10.1636047,40.5160901 L10.1636047,38.5190197 Z" id="Fill-5" fill="#8F8F8F"></path>
                    <path d="M15.247894,40.5349859 L14.8329417,39.323493 L14.4227591,40.5349859 L15.247894,40.5349859 Z M14.5133808,38.5189859 L15.1906592,38.5189859 L16.4689029,41.8979155 L15.7057723,41.8979155 L15.4339071,41.1174085 L14.2415156,41.1174085 L13.9696503,41.8979155 L13.2351371,41.8979155 L14.5133808,38.5189859 Z" id="Fill-7" fill="#8F8F8F"></path>
                    <polygon id="Fill-9" fill="#8F8F8F" points="17.0082046 38.5190197 17.7188699 38.5190197 17.7188699 41.2922028 19.3306426 41.2922028 19.2546702 41.8979493 17.0082046 41.8979493"></polygon>
                    <polygon id="Fill-11" fill="#8F8F8F" points="21.1433162 38.5190197 21.8539815 38.5190197 21.8539815 39.8251606 23.2037687 39.8251606 23.2037687 38.5190197 23.9144341 38.5190197 23.9144341 41.8979493 23.2037687 41.8979493 23.2037687 40.478231 21.8539815 40.478231 21.8539815 41.8979493 21.1433162 41.8979493"></polygon>
                    <path d="M26.2655576,41.3774197 C26.5643369,41.3774197 26.7868031,41.2763493 26.9332969,41.0745465 C27.0797907,40.8727437 27.1526969,40.5840676 27.1526969,40.2085183 C27.1526969,39.8360113 27.0797907,39.5483493 26.9332969,39.3448563 C26.7868031,39.1413634 26.5643369,39.0396169 26.2655576,39.0396169 C25.9667784,39.0396169 25.7439715,39.1413634 25.5978184,39.3448563 C25.4513245,39.5483493 25.3784183,39.8360113 25.3784183,40.2085183 C25.3784183,40.5840676 25.4513245,40.8727437 25.5978184,41.0745465 C25.7439715,41.2763493 25.9667784,41.3774197 26.2655576,41.3774197 M26.2703272,41.9831662 C26.0161774,41.9831662 25.788601,41.9422648 25.5882792,41.8601239 C25.3879575,41.7783211 25.2179565,41.6596732 25.0779357,41.5051944 C24.9382555,41.3507155 24.8305996,41.164462 24.7559899,40.9467718 C24.6813803,40.7290817 24.6439051,40.4829972 24.6439051,40.2085183 C24.6439051,39.9340394 24.6813803,39.6879549 24.7559899,39.4702648 C24.8305996,39.2525746 24.9385962,39.0663211 25.0803204,38.9118423 C25.2220447,38.7573634 25.392727,38.6387155 25.5930488,38.5569127 C25.7933706,38.4747718 26.0189029,38.4338704 26.2703272,38.4338704 C26.5248176,38.4338704 26.7520534,38.4747718 26.9523751,38.5569127 C27.1526969,38.6387155 27.3220165,38.7573634 27.4603339,38.9118423 C27.5986513,39.0663211 27.7046038,39.2525746 27.7775101,39.4702648 C27.8504163,39.6879549 27.8872101,39.9340394 27.8872101,40.2085183 C27.8872101,40.4829972 27.8514383,40.7290817 27.7798949,40.9467718 C27.7083514,41.164462 27.6034209,41.3507155 27.4651035,41.5051944 C27.3267861,41.6596732 27.1574665,41.7783211 26.9571447,41.8601239 C26.7568229,41.9422648 26.5282244,41.9831662 26.2703272,41.9831662" id="Fill-13" fill="#8F8F8F"></path>
                    <path d="M28.5501798,38.5190197 L29.2608451,38.5190197 L29.2608451,40.5302873 C29.2608451,40.8176113 29.3116069,41.030569 29.4134712,41.1691606 C29.5149949,41.3080901 29.6853365,41.3773859 29.9238148,41.3773859 C30.1619524,41.3773859 30.3316127,41.3080901 30.4314329,41.1691606 C30.5315938,41.030569 30.5820149,40.8176113 30.5820149,40.5302873 L30.5820149,38.5190197 L31.2926803,38.5190197 L31.2926803,40.5302873 C31.2926803,40.7858366 31.2606561,41.0048789 31.197289,41.1880901 C31.1335812,41.3713014 31.0429594,41.5217239 30.9254237,41.6400338 C30.8075473,41.7583437 30.6637789,41.8452169 30.493778,41.9003155 C30.3234363,41.9554141 30.1319723,41.9831324 29.9190453,41.9831324 C29.7027114,41.9831324 29.5095439,41.954738 29.3392023,41.8979493 C29.1692013,41.8411606 29.025433,41.7536113 28.9078972,41.6353014 C28.7900208,41.5169915 28.7011025,41.3648789 28.6408015,41.1786254 C28.5805006,40.9923718 28.5501798,40.7716394 28.5501798,40.5160901 L28.5501798,38.5190197 Z" id="Fill-15" fill="#8F8F8F"></path>
                    <path d="M32.6184153,40.7954366 C32.6344274,41.0033239 32.7018827,41.1547606 32.8211218,41.2497465 C32.940361,41.3443944 33.1161535,41.3917183 33.3484995,41.3917183 C33.4595623,41.3917183 33.5532502,41.3798873 33.6295633,41.3562254 C33.7058763,41.3325634 33.7678807,41.3007887 33.8155763,41.2615775 C33.863272,41.2220282 33.8973403,41.1757183 33.918122,41.1219718 C33.9389037,41.0682254 33.9491242,41.0100845 33.9491242,40.9465352 C33.9491242,40.8586479 33.9160779,40.775493 33.8489633,40.6984225 C33.7821894,40.6210141 33.6598841,40.5649014 33.4817067,40.5304225 L33.0381371,40.4499718 C32.8633665,40.4185352 32.7093777,40.3772958 32.5754892,40.3265915 C32.4419413,40.2765634 32.3298565,40.2109859 32.2392347,40.1305352 C32.148613,40.0500845 32.0794543,39.9513803 32.0317586,39.8347606 C31.984063,39.7178028 31.9602151,39.5788732 31.9602151,39.4183099 C31.9602151,39.2574085 31.9929207,39.1150986 32.0579912,38.9923944 C32.1230617,38.8693521 32.2140242,38.7665915 32.3298565,38.6847887 C32.4460295,38.6026479 32.5850283,38.5404507 32.7471935,38.4978592 C32.9093588,38.4552676 33.0875361,38.4339718 33.2813849,38.4339718 C33.5294024,38.4339718 33.7358565,38.4623662 33.9017692,38.5191549 C34.0666599,38.5759437 34.2005485,38.6506479 34.3020721,38.7439437 C34.4039364,38.8369014 34.4792274,38.9447324 34.5286265,39.0681127 C34.5780256,39.1911549 34.6107311,39.3189296 34.6267433,39.4510986 L33.9538938,39.5362817 C33.9188034,39.3507042 33.8513481,39.216169 33.7511872,39.1343662 C33.6510263,39.0522254 33.4990816,39.0113239 33.2956936,39.0113239 C33.1750918,39.0113239 33.0756122,39.0214648 32.9975958,39.0420845 C32.91992,39.0623662 32.8568936,39.0894085 32.8095386,39.1225352 C32.7615022,39.1553239 32.7281153,39.1941972 32.7093777,39.2384789 C32.6899587,39.2824225 32.6807603,39.3283944 32.6807603,39.3757183 C32.6807603,39.5018028 32.7161914,39.5964507 32.7877348,39.659662 C32.8592783,39.7225352 32.9809023,39.7715493 33.1526067,39.8060282 L33.6200241,39.8962817 C33.9886435,39.9689577 34.259146,40.0862535 34.4308504,40.2488451 C34.6025547,40.4110986 34.6884069,40.6456901 34.6884069,40.9516056 C34.6884069,41.099662 34.6604709,41.2362254 34.6049395,41.3609577 C34.5494082,41.4856901 34.4666221,41.5941972 34.3572628,41.687493 C34.2472221,41.7804507 34.109586,41.8531268 33.9446953,41.9051831 C33.7787825,41.9572394 33.5849338,41.9832676 33.3628082,41.9832676 C32.8981162,41.9832676 32.5427836,41.8845634 32.2964695,41.687493 C32.0501555,41.4904225 31.917289,41.1929577 31.8982108,40.7954366 L32.6184153,40.7954366 Z" id="Fill-17" fill="#8F8F8F"></path>
                    <mask id="mask-2" fill="white">
                        <use xlink:href="#path-1"></use>
                    </mask>
                    <g id="Clip-20"></g>
                    <polygon id="Fill-19" fill="#8F8F8F" mask="url(#mask-2)" points="35.332605 41.8979155 36.0432703 41.8979155 36.0432703 38.5189859 35.332605 38.5189859"></polygon>
                    <polygon id="Fill-21" fill="#8F8F8F" mask="url(#mask-2)" points="36.8826118 38.5190197 37.5217336 38.5190197 38.9236454 40.7337803 38.9236454 38.5190197 39.6152324 38.5190197 39.6152324 41.8979493 38.9808802 41.8979493 37.5738582 39.7021183 37.5738582 41.8979493 36.8826118 41.8979493"></polygon>
                    <path d="M42.0241359,40.0477521 L43.330997,40.0477521 L43.330997,41.4769352 C43.1558858,41.6378366 42.9477283,41.762231 42.7061838,41.8507944 C42.4646394,41.9390197 42.2152592,41.9833014 41.9573619,41.9833014 C41.6872001,41.9833014 41.4507659,41.9407099 41.2490814,41.8555268 C41.0470562,41.7703437 40.87944,41.6503437 40.7458922,41.4955268 C40.6123443,41.3410479 40.5125241,41.1541183 40.4454095,40.9350761 C40.3786356,40.7156958 40.3452486,40.4736676 40.3452486,40.2086535 C40.3452486,39.9341746 40.3820424,39.6880901 40.4552893,39.4704 C40.5278549,39.2523718 40.6321039,39.0664563 40.7676959,38.9119775 C40.9026065,38.7574986 41.0668158,38.6388507 41.2610053,38.5570479 C41.4548541,38.474907 41.671188,38.4340056 41.9096663,38.4340056 C42.1290663,38.4340056 42.3174642,38.4607099 42.4748599,38.5144563 C42.6322556,38.5678648 42.7658034,38.642231 42.8755034,38.7368789 C42.9852034,38.8311887 43.072759,38.942062 43.1381702,39.0681465 C43.2029001,39.194231 43.2499144,39.3297803 43.2785318,39.4751324 L42.572636,39.5647099 C42.5535577,39.4795268 42.5303912,39.4048225 42.5034773,39.3399211 C42.4765633,39.2756958 42.4373847,39.2202592 42.3866229,39.1746254 C42.3358611,39.1286535 42.272494,39.0941746 42.1958403,39.0701746 C42.1195272,39.0468507 42.0241359,39.0350197 41.9096663,39.0350197 C41.6333721,39.0350197 41.4262367,39.1374423 41.2896227,39.3426254 C41.152668,39.5478085 41.0845314,39.8361465 41.0845314,40.2086535 C41.0845314,40.5842028 41.1536901,40.8732169 41.2920075,41.0770479 C41.4303249,41.2802068 41.6551759,41.3819493 41.9669011,41.3819493 C42.116461,41.3819493 42.2459207,41.3670761 42.3556207,41.3369915 C42.4653207,41.3072451 42.5709326,41.2609352 42.6727969,41.1973859 L42.6727969,40.634231 L42.0241359,40.634231 L42.0241359,40.0477521 Z" id="Fill-22" fill="#8F8F8F" mask="url(#mask-2)"></path>
                    <path d="M4.78121747,47.0562254 C5.07999672,47.0562254 5.30246291,46.9551549 5.44895672,46.7533521 C5.59545054,46.5515493 5.66835676,46.2628732 5.66835676,45.8873239 C5.66835676,45.5148169 5.59545054,45.2271549 5.44895672,45.023662 C5.30246291,44.820169 5.07999672,44.7184225 4.78121747,44.7184225 C4.48243822,44.7184225 4.25963135,44.820169 4.11347821,45.023662 C3.9669844,45.2271549 3.89407817,45.5148169 3.89407817,45.8873239 C3.89407817,46.2628732 3.9669844,46.5515493 4.11347821,46.7533521 C4.25963135,46.9551549 4.48243822,47.0562254 4.78121747,47.0562254 M4.78598703,47.6619718 C4.5318373,47.6619718 4.30426086,47.6210704 4.10393908,47.5389296 C3.90361731,47.4571268 3.73361634,47.3384789 3.59359551,47.184 C3.45391536,47.0295211 3.34625944,46.8432676 3.2716498,46.6255775 C3.19704016,46.4078873 3.15956499,46.1618028 3.15956499,45.8873239 C3.15956499,45.6128451 3.19704016,45.3667606 3.2716498,45.1490704 C3.34625944,44.9313803 3.45425604,44.7451268 3.59598029,44.5906479 C3.73770454,44.436169 3.90838687,44.3175211 4.10870865,44.2357183 C4.30903042,44.1535775 4.53456276,44.1126761 4.78598703,44.1126761 C5.04047745,44.1126761 5.26771321,44.1535775 5.46803499,44.2357183 C5.66835676,44.3175211 5.83767636,44.436169 5.97599378,44.5906479 C6.11431119,44.7451268 6.2202637,44.9313803 6.29316992,45.1490704 C6.36607615,45.3667606 6.40286994,45.6128451 6.40286994,45.8873239 C6.40286994,46.1618028 6.3670982,46.4078873 6.2955547,46.6255775 C6.22401121,46.8432676 6.11908076,47.0295211 5.98076334,47.184 C5.84244592,47.3384789 5.67312633,47.4571268 5.47280455,47.5389296 C5.27248278,47.6210704 5.04388429,47.6619718 4.78598703,47.6619718" id="Fill-23" fill="#8F8F8F" mask="url(#mask-2)"></path>
                    <path d="M8.88304431,45.7833465 C9.00705303,45.7833465 9.1095987,45.7708394 9.19068133,45.7454873 C9.27176395,45.7201352 9.33615309,45.6856563 9.38384875,45.6413746 C9.43154441,45.597093 9.46390933,45.5426704 9.48162486,45.478107 C9.49899971,45.4132056 9.50785747,45.3428958 9.50785747,45.2675155 C9.50785747,45.1884169 9.49831834,45.1191211 9.47924008,45.0589521 C9.46016181,44.9994592 9.42677485,44.9487549 9.37907919,44.9075155 C9.33104284,44.8666141 9.26699438,44.8351775 9.18591176,44.8132056 C9.10448845,44.7908958 9.00228347,44.7797408 8.87827475,44.7797408 L8.37270074,44.7797408 L8.37270074,45.7833465 L8.88304431,45.7833465 Z M7.67157452,44.1979944 L8.88781388,44.1979944 C9.1484366,44.1979944 9.36374844,44.2270648 9.53409009,44.2852056 C9.70409105,44.3436845 9.83934232,44.421093 9.9395032,44.517431 C10.0396641,44.613431 10.1095042,44.7256563 10.1493641,44.853431 C10.1888834,44.9812056 10.2089837,45.1143887 10.2089837,45.2533183 C10.2089837,45.4013746 10.1888834,45.5433465 10.1493641,45.6788958 C10.1095042,45.8147831 10.0396641,45.933769 9.9395032,46.0365296 C9.83934232,46.1389521 9.70579446,46.2200789 9.53885965,46.2802479 C9.37192484,46.3400789 9.16104188,46.3698254 8.90689214,46.3698254 L8.37270074,46.3698254 L8.37270074,47.5769239 L7.67157452,47.5769239 L7.67157452,44.1979944 Z" id="Fill-24" fill="#8F8F8F" mask="url(#mask-2)"></path>
                    <path d="M12.6175805,45.7833465 C12.7415892,45.7833465 12.8441349,45.7708394 12.9252175,45.7454873 C13.0063001,45.7201352 13.0706893,45.6856563 13.1183849,45.6413746 C13.1660806,45.597093 13.1984455,45.5426704 13.216161,45.478107 C13.2335359,45.4132056 13.2423937,45.3428958 13.2423937,45.2675155 C13.2423937,45.1884169 13.2328545,45.1191211 13.2137763,45.0589521 C13.194698,44.9994592 13.161311,44.9487549 13.1136154,44.9075155 C13.065579,44.8666141 13.0015306,44.8351775 12.9204479,44.8132056 C12.8390246,44.7908958 12.7368197,44.7797408 12.6128109,44.7797408 L12.1072369,44.7797408 L12.1072369,45.7833465 L12.6175805,45.7833465 Z M11.4061107,44.1979944 L12.6223501,44.1979944 C12.8829728,44.1979944 13.0982846,44.2270648 13.2686263,44.2852056 C13.4386272,44.3436845 13.5738785,44.421093 13.6740394,44.517431 C13.7742003,44.613431 13.8440404,44.7256563 13.8839003,44.853431 C13.9234196,44.9812056 13.9435199,45.1143887 13.9435199,45.2533183 C13.9435199,45.4013746 13.9234196,45.5433465 13.8839003,45.6788958 C13.8440404,45.8147831 13.7742003,45.933769 13.6740394,46.0365296 C13.5738785,46.1389521 13.4403307,46.2200789 13.2733958,46.2802479 C13.106461,46.3400789 12.8955781,46.3698254 12.6414283,46.3698254 L12.1072369,46.3698254 L12.1072369,47.5769239 L11.4061107,47.5769239 L11.4061107,44.1979944 Z" id="Fill-25" fill="#8F8F8F" mask="url(#mask-2)"></path>
                    <path d="M16.6049718,47.0562254 C16.9037511,47.0562254 17.1262173,46.9551549 17.2727111,46.7533521 C17.4192049,46.5515493 17.4921111,46.2628732 17.4921111,45.8873239 C17.4921111,45.5148169 17.4192049,45.2271549 17.2727111,45.023662 C17.1262173,44.820169 16.9037511,44.7184225 16.6049718,44.7184225 C16.3061926,44.7184225 16.0833857,44.820169 15.9372326,45.023662 C15.7907388,45.2271549 15.7178325,45.5148169 15.7178325,45.8873239 C15.7178325,46.2628732 15.7907388,46.5515493 15.9372326,46.7533521 C16.0833857,46.9551549 16.3061926,47.0562254 16.6049718,47.0562254 M16.6097414,47.6619718 C16.3555917,47.6619718 16.1280152,47.6210704 15.9276934,47.5389296 C15.7273717,47.4571268 15.5573707,47.3384789 15.4173499,47.184 C15.2776697,47.0295211 15.1700138,46.8432676 15.0954042,46.6255775 C15.0207945,46.4078873 14.9833194,46.1618028 14.9833194,45.8873239 C14.9833194,45.6128451 15.0207945,45.3667606 15.0954042,45.1490704 C15.1700138,44.9313803 15.2780104,44.7451268 15.4197347,44.5906479 C15.5614589,44.436169 15.7321412,44.3175211 15.932463,44.2357183 C16.1327848,44.1535775 16.3583171,44.1126761 16.6097414,44.1126761 C16.8642318,44.1126761 17.0914676,44.1535775 17.2917893,44.2357183 C17.4921111,44.3175211 17.6614307,44.436169 17.7997481,44.5906479 C17.9380656,44.7451268 18.0440181,44.9313803 18.1169243,45.1490704 C18.1898305,45.3667606 18.2266243,45.6128451 18.2266243,45.8873239 C18.2266243,46.1618028 18.1908526,46.4078873 18.1193091,46.6255775 C18.0477656,46.8432676 17.9428351,47.0295211 17.8045177,47.184 C17.6662003,47.3384789 17.4968807,47.4571268 17.2965589,47.5389296 C17.0962371,47.6210704 16.8676386,47.6619718 16.6097414,47.6619718" id="Fill-26" fill="#8F8F8F" mask="url(#mask-2)"></path>
                    <path d="M20.7497588,45.7216225 C20.8608216,45.7216225 20.9531468,45.7097915 21.0263937,45.6864676 C21.0992999,45.6624676 21.1575567,45.6296789 21.2004828,45.5870873 C21.2434089,45.5444958 21.2727077,45.4927775 21.2887198,45.4329465 C21.3047319,45.3731155 21.3125676,45.306862 21.3125676,45.2345239 C21.3125676,45.1743549 21.3030285,45.1168901 21.2839502,45.0614535 C21.264872,45.0063549 21.2321664,44.9573408 21.1861741,44.9147493 C21.1401819,44.8721577 21.0764741,44.839369 20.9953915,44.815369 C20.9139682,44.791707 20.8117632,44.7798761 20.6877545,44.7798761 L20.1964892,44.7798761 L20.1964892,45.7216225 L20.7497588,45.7216225 Z M19.495363,44.1977915 L20.7020632,44.1977915 C20.9691589,44.1977915 21.1892403,44.2285521 21.3626481,44.2904113 C21.5360559,44.3515944 21.6716478,44.4323831 21.770446,44.5314254 C21.8689035,44.6308056 21.9373808,44.7413408 21.9755373,44.862693 C22.0136939,44.9840451 22.0327721,45.103369 22.0327721,45.2203268 C22.0327721,45.4376789 21.9929122,45.6208901 21.913533,45.7692845 C21.8341538,45.9173408 21.7002652,46.0417352 21.5128894,46.1428056 L22.2044765,47.5767211 L21.4365764,47.5767211 L20.8642284,46.3084394 L20.1964892,46.3084394 L20.1964892,47.5767211 L19.495363,47.5767211 L19.495363,44.1977915 Z" id="Fill-27" fill="#8F8F8F" mask="url(#mask-2)"></path>
                    <polygon id="Fill-28" fill="#8F8F8F" mask="url(#mask-2)" points="24.0168435 44.8082028 22.9913868 44.8082028 22.9913868 44.1977239 25.7577351 44.1977239 25.7577351 44.8082028 24.7322784 44.8082028 24.7322784 47.5766535 24.0168435 47.5766535"></polygon>
                    <path d="M26.8168173,44.1978592 L27.5274826,44.1978592 L27.5274826,46.2091268 C27.5274826,46.4964507 27.5782444,46.7094085 27.6801087,46.848 C27.7816323,46.9869296 27.951974,47.0562254 28.1904523,47.0562254 C28.4285899,47.0562254 28.5982502,46.9869296 28.6980704,46.848 C28.7982313,46.7094085 28.8486524,46.4964507 28.8486524,46.2091268 L28.8486524,44.1978592 L29.5593178,44.1978592 L29.5593178,46.2091268 C29.5593178,46.4646761 29.5272935,46.6837183 29.4639264,46.8669296 C29.4002187,47.0501408 29.3095969,47.2005634 29.1920612,47.3188732 C29.0741848,47.4371831 28.9304164,47.5240563 28.7604154,47.5791549 C28.5900738,47.6342535 28.3986098,47.6619718 28.1856827,47.6619718 C27.9693488,47.6619718 27.7761814,47.6335775 27.6058398,47.5767887 C27.4358388,47.52 27.2920704,47.4324507 27.1745347,47.3141408 C27.0566583,47.195831 26.96774,47.0437183 26.907439,46.8574648 C26.8471381,46.6712113 26.8168173,46.4504789 26.8168173,46.1949296 L26.8168173,44.1978592 Z" id="Fill-29" fill="#8F8F8F" mask="url(#mask-2)"></path>
                    <polygon id="Fill-30" fill="#8F8F8F" mask="url(#mask-2)" points="30.8707781 44.1978592 31.5099 44.1978592 32.9118117 46.4126197 32.9118117 44.1978592 33.6033988 44.1978592 33.6033988 47.5767887 32.9690465 47.5767887 31.5620245 45.3809577 31.5620245 47.5767887 30.8707781 47.5767887"></polygon>
                    <polygon id="Fill-31" fill="#8F8F8F" mask="url(#mask-2)" points="34.9823826 47.5767887 35.6930479 47.5767887 35.6930479 44.1978592 34.9823826 44.1978592"></polygon>
                    <polygon id="Fill-32" fill="#8F8F8F" mask="url(#mask-2)" points="37.8437815 44.8082028 36.8183248 44.8082028 36.8183248 44.1977239 39.5846732 44.1977239 39.5846732 44.8082028 38.5592164 44.8082028 38.5592164 47.5766535 37.8437815 47.5766535"></polygon>
                    <polygon id="Fill-33" fill="#8F8F8F" mask="url(#mask-2)" points="41.7307054 46.1995944 40.5526225 44.1977915 41.3443705 44.1977915 42.0788837 45.5654535 42.8372447 44.1977915 43.5908361 44.1977915 42.4413707 46.1995944 42.4413707 47.5767211 41.7307054 47.5767211"></polygon>
                </g>
            </g>
        </g>
    </g>
</svg>