<?xml version="1.0" encoding="utf-8"?>
<!-- Generator: Adobe Illustrator 23.0.0, SVG Export Plug-In . SVG Version: 6.00 Build 0)  -->
<svg version="1.1" id="Layer_1" xmlns="http://www.w3.org/2000/svg" xmlns:xlink="http://www.w3.org/1999/xlink" x="0px" y="0px"
	 viewBox="0 0 100 24" style="enable-background:new 0 0 100 24;" xml:space="preserve">
<style type="text/css">
	.st0{filter:url(#Adobe_OpacityMaskFilter);}
	.st1{fill-rule:evenodd;clip-rule:evenodd;fill:#FFFFFF;}
	.st2{mask:url(#mask-2_1_);fill-rule:evenodd;clip-rule:evenodd;fill:#FFFFFF;}
	.st3{fill:#FFFFFF;}
</style>
<title>logo_horz</title>
<desc>Created with Sketch.</desc>
<g id="Page-1">
	<g id="Home-Page---320-x" transform="translate(-16.000000, -19.000000)">
		<g id="logo_horz" transform="translate(16.000000, 19.000000)">
			<g id="Group-Copy" transform="translate(32.000000, 8.000000)">
				<g id="Clip-2">
				</g>
				<defs>
					<filter id="Adobe_OpacityMaskFilter" filterUnits="userSpaceOnUse" x="4.8" y="-4.1" width="59.6" height="16">
						<feColorMatrix  type="matrix" values="1 0 0 0 0  0 1 0 0 0  0 0 1 0 0  0 0 0 1 0"/>
					</filter>
				</defs>
				<mask maskUnits="userSpaceOnUse" x="4.8" y="-4.1" width="59.6" height="16" id="mask-2_1_">
					<g class="st0">
						<polygon id="path-1_1_" class="st1" points="4.8,-4.3 206.3,-4.3 206.3,12 4.8,12 						"/>
					</g>
				</mask>
				<path id="Fill-1" class="st2" d="M39.2,8.4c-0.6,0.6-1.3,1-2.3,1c-0.9,0-1.7-0.3-2.3-1C34.1,7.8,33.8,7,33.8,6
					c0-1,0.3-1.8,0.9-2.4c0.6-0.6,1.3-1,2.3-1c0.9,0,1.7,0.3,2.3,1C39.8,4.2,40.1,5,40.1,6C40.1,7,39.8,7.8,39.2,8.4z M40,1.8
					c-0.4-0.6-0.9-1-1.5-1.3C37.9,0.2,37.2,0,36.4,0c-1,0-2,0.3-2.8,0.8c-0.8,0.6-1.5,1.3-1.9,2.2C31.3,3.9,31,4.9,31,6
					c0,1.2,0.2,2.2,0.7,3.1c0.5,0.9,1.1,1.6,1.9,2.1c0.8,0.5,1.7,0.7,2.7,0.7c0.8,0,1.6-0.2,2.2-0.5c0.6-0.3,1.1-0.7,1.5-1.3l0,1.4
					h2.8l0-11.2H40L40,1.8z M47.8,2.6V0.4h-2.7v11.2h2.8V7.2c0-0.7,0.1-1.3,0.2-1.8C48.7,3.6,50,3,51.2,3c0.4,0,0.7,0,0.7,0V0.2
					c0,0-0.2,0-0.5,0C49.6,0.2,48.4,1.2,47.8,2.6z M10.7,9.2h-3V4.6h3c1.4,0,2.3,0.9,2.3,2.2C13,8.2,12.2,9.2,10.7,9.2z M7.7-1.6
					h2.7c1.3,0,2,0.8,2,1.9s-0.7,2-1.9,2H7.7V-1.6z M13.4,3.4L13.4,3.4c1.2-0.7,1.9-1.9,1.9-3.4c0-2.6-2-4-4.8-4H4.8v15.7l5.7,0
					c2.9,0,5.4-1.4,5.4-4.5C15.9,5.5,15.1,3.9,13.4,3.4z M60.9,8.4c-0.6,0.6-1.3,1-2.3,1c-0.9,0-1.7-0.3-2.3-1
					C55.8,7.8,55.5,7,55.5,6c0-1,0.3-1.8,0.9-2.4c0.6-0.6,1.3-1,2.3-1c0.9,0,1.7,0.3,2.3,1C61.5,4.2,61.8,5,61.8,6
					C61.8,7,61.5,7.8,60.9,8.4z M61.6,1.8c-0.4-0.6-0.9-1-1.5-1.3C59.5,0.2,58.8,0,58.1,0c-1,0-2,0.3-2.8,0.8
					c-0.8,0.6-1.5,1.3-1.9,2.2c-0.4,0.9-0.7,1.9-0.7,3c0,1.2,0.2,2.2,0.7,3.1c0.5,0.9,1.1,1.6,1.9,2.1c0.8,0.5,1.7,0.7,2.7,0.7
					c0.8,0,1.6-0.2,2.2-0.5c0.6-0.3,1.1-0.7,1.5-1.3l0,1.4h2.8l0-15.6h-2.8L61.6,1.8z M23.6,9.6c-1.8,0-3.3-1.4-3.3-3.6
					c0-2.1,1.5-3.6,3.3-3.6c1.8,0,3.3,1.5,3.3,3.6C26.9,8.1,25.4,9.6,23.6,9.6z M23.5,0c-3.4,0-6.2,2.5-6.2,6c0,3.5,2.8,6,6.2,6
					c3.4,0,6.2-2.5,6.2-6C29.7,2.5,27,0,23.5,0z"/>
			</g>
			<path id="Shape" class="st3" d="M20.1,7.9V0H4.8v2.3h1c0.7,0,1.3,0.6,1.3,1.3v16.9c0,0.7-0.6,1.3-1.3,1.3h-1V24h20.7V7.9H20.1z
				 M17.8,10.2v3.1h-3.1v-3.1L17.8,10.2z M20.1,15.6v-5.4h3.2v11.6H9.4V2.3h8.5v5.6h-5.4v7.7L20.1,15.6z"/>
		</g>
	</g>
</g>
</svg>
